# xmcd
#
# Track frame offsets:
#	150
#	12257
#	27722
#	47232
#	62650
#	76417
#	86762
#	102312
#	112217
#	150587
#	165282
#	186732
#	210495
#	223122
#	236477
#	250032
#	264450
#
# Disc length: 3887 seconds
#
# Revision: 1
# Processed by: cddbd v1.5.2PL0 Copyright (c) Steve Scherf et al.
# Submitted via: audiograbber 1.83.01
#
DISCID=ed0f2d11
DTITLE=басос йымстамтимоу - 34 паяадосиайа йупяиайа тяацоудиа CD2
DYEAR=2005
DGENRE=Country
TTITLE0=о йаяабас
TTITLE1=т' аг жикиппоу
TTITLE2=то нилокоглам
TTITLE3=то пипеяим
TTITLE4=о йатижес
TTITLE5=апо та ьгка петемиа
TTITLE6=пециытисса
TTITLE7=о йауйас
TTITLE8=тессеяа тфиаи тессеяа
TTITLE9=ацапгса тгм поу йаяйиас
TTITLE10=то теятим
TTITLE11=то циаселим
TTITLE12=ои сгйысес
TTITLE13=ои соусес
TTITLE14=о босйос
TTITLE15=тгс йатеяимас г доукеиа
TTITLE16=тфибаеяи
EXTD=
EXTT0=
EXTT1=
EXTT2=
EXTT3=
EXTT4=
EXTT5=
EXTT6=
EXTT7=
EXTT8=
EXTT9=
EXTT10=
EXTT11=
EXTT12=
EXTT13=
EXTT14=
EXTT15=
EXTT16=
PLAYORDER=
